<?xml version="1.0" encoding="utf-8"?>
<!-- Generator: Adobe Illustrator 24.0.0, SVG Export Plug-In . SVG Version: 6.00 Build 0)  -->
<svg version="1.1" id="Layer_1" xmlns="http://www.w3.org/2000/svg" xmlns:xlink="http://www.w3.org/1999/xlink" x="0px" y="0px"
	 viewBox="0 0 750 750" style="enable-background:new 0 0 750 750;" xml:space="preserve">
<style type="text/css">
	.st0{fill:url(#SVGID_1_);}
	.st1{fill:url(#SVGID_2_);}
	.st2{fill:url(#SVGID_3_);}
	.st3{fill:#349A46;}
	.st4{fill:url(#SVGID_4_);}
	.st5{fill:url(#SVGID_5_);}
	.st6{fill:url(#SVGID_6_);}
	.st7{fill:url(#SVGID_7_);}
	.st8{fill:url(#SVGID_8_);}
	.st9{fill:url(#SVGID_9_);}
	.st10{fill:url(#SVGID_10_);}
	.st11{fill:url(#SVGID_11_);}
	.st12{fill:url(#SVGID_12_);}
	.st13{fill:url(#SVGID_13_);}
	.st14{fill:url(#SVGID_14_);}
	.st15{fill:url(#SVGID_15_);}
	.st16{fill:url(#SVGID_16_);}
	.st17{fill:url(#SVGID_17_);}
	.st18{fill:url(#SVGID_18_);}
	.st19{fill:url(#SVGID_19_);}
</style>
<g>
	<linearGradient id="SVGID_1_" gradientUnits="userSpaceOnUse" x1="44.4011" y1="1172.993" x2="335.5233" y2="1172.993">
		<stop  offset="0" style="stop-color:#5989B2"/>
		<stop  offset="1" style="stop-color:#1C6FB1"/>
	</linearGradient>
	<path class="st0" d="M52.9,1190.06c4.13-4.74,8.74-9.08,13.6-13.13c4.86-4.06,10.01-7.8,15.42-11.22
		c5.42-3.39,11.1-6.49,17.08-9.06c5.96-2.6,12.22-4.73,18.75-6.14c13.02-3.01,27.28-2.51,40.26,1.1c6.51,1.74,12.69,4.18,18.6,6.76
		c5.91,2.62,11.51,5.47,17.04,8.14c5.5,2.75,10.9,5.31,16.34,7.55c5.41,2.31,10.88,4.13,16.43,5.58c5.55,1.46,11.2,2.38,16.94,2.85
		c1.44,0.08,2.88,0.2,4.32,0.25c1.44,0.02,2.89,0.08,4.34,0.06c2.9-0.01,5.8-0.12,8.7-0.39c1.45-0.14,2.9-0.27,4.35-0.47l2.18-0.27
		l2.17-0.36c2.9-0.46,5.77-1.13,8.65-1.79c5.74-1.43,11.42-3.31,17-5.57c11.15-4.57,21.95-10.55,31.96-18.08
		c-3.66,5.12-8.05,9.75-12.79,13.99c-2.36,2.14-4.86,4.13-7.4,6.07c-2.56,1.92-5.23,3.71-7.95,5.45
		c-5.49,3.37-11.29,6.36-17.37,8.76c-3.04,1.2-6.14,2.28-9.31,3.18l-2.37,0.68l-2.4,0.6c-1.6,0.43-3.22,0.72-4.85,1.04
		c-3.25,0.62-6.54,1.07-9.85,1.4c-1.65,0.18-3.32,0.22-4.98,0.33c-1.66,0.08-3.33,0.06-5,0.09c-6.68,0.02-13.39-0.79-19.95-2.12
		c-6.56-1.35-12.95-3.36-19.06-5.71c-6.09-2.4-11.95-5.13-17.59-7.88c-5.62-2.81-11.1-5.61-16.5-8.14c-2.7-1.3-5.38-2.48-8.08-3.61
		c-2.7-1.08-5.4-2.1-8.1-2.97c-5.41-1.82-10.92-2.91-16.5-3.55c-1.4-0.18-2.8-0.21-4.21-0.32c-1.41-0.03-2.81-0.07-4.22-0.06
		c-1.42,0.05-2.84,0.02-4.26,0.16l-2.14,0.15l-2.14,0.24c-2.86,0.33-5.74,0.8-8.61,1.36c-2.87,0.62-5.74,1.3-8.6,2.12
		c-5.72,1.61-11.4,3.64-17.01,5.96C74.53,1177.73,63.56,1183.46,52.9,1190.06z"/>
</g>
<g>
	<linearGradient id="SVGID_2_" gradientUnits="userSpaceOnUse" x1="44.2049" y1="1207.1971" x2="335.3272" y2="1207.1971">
		<stop  offset="0" style="stop-color:#5989B2"/>
		<stop  offset="1" style="stop-color:#1C6FB1"/>
	</linearGradient>
	<path class="st1" d="M52.7,1224.26c4.13-4.74,8.74-9.08,13.6-13.13c4.86-4.06,10.01-7.8,15.42-11.22
		c5.42-3.39,11.1-6.49,17.08-9.06c5.96-2.6,12.22-4.73,18.75-6.14c13.02-3.01,27.28-2.51,40.26,1.1c6.51,1.74,12.69,4.18,18.6,6.76
		c5.91,2.62,11.51,5.47,17.04,8.14c5.5,2.75,10.9,5.31,16.34,7.55c5.41,2.31,10.88,4.13,16.43,5.58c5.55,1.46,11.2,2.38,16.94,2.85
		c1.44,0.08,2.88,0.2,4.32,0.25c1.44,0.02,2.89,0.08,4.34,0.06c2.9-0.01,5.8-0.12,8.7-0.39c1.45-0.14,2.9-0.27,4.35-0.47l2.18-0.27
		l2.17-0.36c2.9-0.46,5.77-1.13,8.65-1.79c5.74-1.43,11.42-3.31,17-5.57c11.15-4.57,21.95-10.55,31.96-18.08
		c-3.66,5.12-8.05,9.75-12.79,13.99c-2.36,2.14-4.86,4.13-7.4,6.07c-2.56,1.92-5.23,3.71-7.95,5.45
		c-5.49,3.37-11.29,6.36-17.37,8.76c-3.04,1.2-6.14,2.28-9.31,3.18l-2.37,0.68l-2.4,0.6c-1.6,0.43-3.22,0.72-4.85,1.04
		c-3.25,0.62-6.54,1.07-9.85,1.4c-1.65,0.18-3.32,0.22-4.98,0.33c-1.66,0.08-3.33,0.06-5,0.09c-6.68,0.02-13.39-0.79-19.95-2.12
		c-6.56-1.35-12.95-3.36-19.06-5.71c-6.09-2.4-11.95-5.13-17.59-7.88c-5.62-2.81-11.1-5.61-16.5-8.14c-2.7-1.3-5.38-2.48-8.08-3.61
		c-2.7-1.08-5.4-2.1-8.1-2.97c-5.41-1.82-10.92-2.91-16.5-3.55c-1.4-0.18-2.8-0.21-4.21-0.32c-1.41-0.03-2.81-0.07-4.22-0.06
		c-1.42,0.05-2.84,0.02-4.26,0.16l-2.14,0.15l-2.14,0.24c-2.86,0.33-5.74,0.8-8.61,1.36c-2.87,0.62-5.74,1.3-8.6,2.12
		c-5.72,1.61-11.4,3.64-17.01,5.96C74.33,1211.94,63.37,1217.67,52.7,1224.26z"/>
</g>
<g>
	
		<linearGradient id="SVGID_3_" gradientUnits="userSpaceOnUse" x1="754.7519" y1="1925.0609" x2="754.7519" y2="2077.4907" gradientTransform="matrix(0.6302 0.7765 -0.7765 0.6302 1346.1313 -827.2418)">
		<stop  offset="0" style="stop-color:#6CBD45"/>
		<stop  offset="0.3942" style="stop-color:#6ABC45"/>
		<stop  offset="0.5616" style="stop-color:#63B945"/>
		<stop  offset="0.6861" style="stop-color:#56B545"/>
		<stop  offset="0.7893" style="stop-color:#45AE45"/>
		<stop  offset="0.8794" style="stop-color:#2EA545"/>
		<stop  offset="0.959" style="stop-color:#129A45"/>
		<stop  offset="1" style="stop-color:#009345"/>
		<stop  offset="1" style="stop-color:#37B34A"/>
	</linearGradient>
	<path class="st2" d="M246.24,993.32c32.68-26.53,80.17-22.16,80.78-21.41c0.65,0.8-4.89,48.12-37.57,74.65
		s-76.82,26.29-80.78,21.41C205.03,1063.48,213.56,1019.84,246.24,993.32z"/>
	<g>
		<g>
			<path class="st3" d="M213.32,1065.82c-0.17-0.26-0.11-0.6-0.07-0.89c0.05-0.3,0.12-0.6,0.21-0.89c0.17-0.58,0.39-1.15,0.62-1.71
				c0.47-1.12,1.01-2.21,1.57-3.28c1.13-2.14,2.37-4.23,3.69-6.27c2.65-4.06,5.57-7.94,8.71-11.64
				c6.26-7.41,13.36-14.13,21.13-19.97c3.91-2.89,8-5.55,12.24-7.93c4.25-2.35,8.62-4.49,13.11-6.33c4.49-1.85,9.07-3.44,13.73-4.76
				c2.34-0.64,4.68-1.23,7.05-1.73c2.37-0.48,4.75-1,7.16-1.08c-1.2,0.09-2.37,0.42-3.54,0.69c-1.17,0.28-2.34,0.58-3.5,0.9
				c-2.32,0.64-4.61,1.37-6.89,2.15c-4.56,1.53-9.03,3.3-13.41,5.25c-8.75,3.93-17.12,8.69-24.77,14.42
				c-7.68,5.72-14.73,12.27-21.16,19.39c-3.2,3.57-6.26,7.28-9.07,11.17c-1.42,1.94-2.78,3.92-4.03,5.97
				c-0.62,1.03-1.22,2.07-1.75,3.14c-0.27,0.53-0.53,1.08-0.75,1.64c-0.11,0.28-0.21,0.56-0.28,0.85
				C213.27,1065.23,213.18,1065.55,213.32,1065.82z"/>
		</g>
		<g>
			<path class="st3" d="M238.23,1032.9c0.16-0.32,0.53-0.47,0.82-0.65c0.31-0.16,0.63-0.3,0.96-0.44c0.65-0.27,1.32-0.47,1.99-0.67
				c1.35-0.37,2.72-0.64,4.11-0.8c2.78-0.35,5.61-0.3,8.4,0.08c2.79,0.44,5.52,1.23,8.06,2.42c1.28,0.58,2.5,1.26,3.67,2.01
				c1.15,0.78,2.31,1.57,3.26,2.6c-1.2-0.67-2.46-1.21-3.71-1.73c-1.25-0.53-2.52-1-3.79-1.43c-1.28-0.41-2.55-0.83-3.86-1.12
				c-1.29-0.34-2.6-0.58-3.91-0.78c-2.64-0.4-5.32-0.53-8.01-0.51c-1.34,0.03-2.69,0.08-4.04,0.21c-0.68,0.05-1.35,0.14-2.02,0.24
				c-0.34,0.05-0.67,0.11-1,0.19C238.83,1032.62,238.45,1032.65,238.23,1032.9z"/>
		</g>
		<g>
			<path class="st3" d="M260.26,1014.77c0.18-0.11,0.26-0.33,0.36-0.51c0.1-0.19,0.19-0.38,0.27-0.58c0.17-0.39,0.33-0.78,0.47-1.17
				c0.31-0.78,0.56-1.58,0.82-2.36c0.51-1.58,0.89-3.18,1.2-4.77c0.28-1.59,0.46-3.22,0.51-4.87c0.05-1.66,0.06-3.34-0.07-5.07
				c0.93,1.51,1.38,3.25,1.63,4.99c0.24,1.75,0.21,3.55-0.11,5.32c-0.34,1.75-0.92,3.44-1.74,5.01c-0.4,0.79-0.87,1.54-1.4,2.24
				c-0.28,0.35-0.55,0.69-0.87,1.01C261.03,1014.3,260.72,1014.67,260.26,1014.77z"/>
		</g>
	</g>
</g>
<g>
	
		<linearGradient id="SVGID_4_" gradientUnits="userSpaceOnUse" x1="68.353" y1="1208.3395" x2="233.3075" y2="1208.3395" gradientTransform="matrix(0.9976 0.0686 -0.0686 0.9976 64.7763 -139.5171)">
		<stop  offset="0" style="stop-color:#6CBD45"/>
		<stop  offset="0.3942" style="stop-color:#6ABC45"/>
		<stop  offset="0.5616" style="stop-color:#63B945"/>
		<stop  offset="0.6861" style="stop-color:#56B545"/>
		<stop  offset="0.7893" style="stop-color:#45AE45"/>
		<stop  offset="0.8794" style="stop-color:#2EA545"/>
		<stop  offset="0.959" style="stop-color:#129A45"/>
		<stop  offset="1" style="stop-color:#009345"/>
		<stop  offset="1" style="stop-color:#37B34A"/>
	</linearGradient>
	<path class="st4" d="M152.16,1039.77c-43.91-24.41-98.82-9.45-99.38-8.44c-0.6,1.08,15.71,55.55,59.62,79.96
		c43.91,24.41,95.73,15,99.38,8.44C215.12,1113.72,196.07,1064.18,152.16,1039.77z"/>
	<g>
		<g>
			<path class="st3" d="M205.86,1118.18c0.11-0.35-0.07-0.7-0.2-1.02c-0.15-0.33-0.33-0.63-0.51-0.94c-0.38-0.61-0.8-1.19-1.23-1.75
				c-0.87-1.14-1.79-2.23-2.75-3.3c-1.92-2.13-3.92-4.18-6-6.14c-4.14-3.96-8.52-7.66-13.02-11.17c-4.53-3.48-9.18-6.82-14.01-9.86
				c-4.81-3.07-9.76-5.92-14.86-8.47c-10.16-5.14-20.95-9.01-32.02-11.86c-5.54-1.41-11.15-2.59-16.81-3.48
				c-2.83-0.46-5.67-0.84-8.53-1.15c-1.43-0.16-2.86-0.29-4.29-0.39c-1.43-0.09-2.88-0.25-4.3-0.12c2.85-0.44,5.76-0.35,8.65-0.32
				c2.89,0.06,5.78,0.27,8.66,0.52c5.76,0.55,11.5,1.43,17.16,2.66c5.68,1.2,11.26,2.81,16.77,4.68c5.49,1.92,10.86,4.19,16.07,6.78
				c10.36,5.27,20.11,11.72,28.99,19.19c4.44,3.72,8.66,7.71,12.6,11.96c1.95,2.14,3.85,4.33,5.6,6.64
				c0.87,1.16,1.72,2.34,2.48,3.57c0.38,0.62,0.74,1.25,1.06,1.9c0.16,0.33,0.31,0.66,0.42,1.01
				C205.87,1117.46,206.01,1117.84,205.86,1118.18z"/>
		</g>
		<g>
			<path class="st3" d="M169.78,1084.64c-0.31-0.25-0.76-0.23-1.15-0.27c-0.4-0.03-0.81-0.04-1.21-0.04
				c-0.81,0.01-1.62,0.03-2.43,0.09c-1.61,0.1-3.22,0.3-4.81,0.53c-3.18,0.5-6.32,1.21-9.35,2.22c-1.51,0.51-3.01,1.06-4.45,1.74
				c-1.47,0.63-2.89,1.38-4.3,2.15c-1.41,0.78-2.79,1.61-4.14,2.52c-1.35,0.89-2.7,1.82-3.95,2.88c0.93-1.38,2.14-2.53,3.35-3.66
				c1.23-1.11,2.54-2.14,3.92-3.07c2.74-1.9,5.78-3.37,8.95-4.46c3.19-1.02,6.48-1.67,9.81-1.87c1.66-0.11,3.33-0.09,4.98,0.03
				c0.83,0.08,1.65,0.17,2.47,0.33c0.41,0.08,0.82,0.17,1.22,0.29C169.06,1084.22,169.52,1084.3,169.78,1084.64z"/>
		</g>
		<g>
			<path class="st3" d="M140.12,1067.9c-0.54-0.04-0.97-0.43-1.39-0.72c-0.42-0.32-0.81-0.67-1.19-1.03
				c-0.75-0.73-1.44-1.52-2.06-2.36c-1.25-1.68-2.28-3.54-3.02-5.52c-0.74-1.99-1.16-4.09-1.26-6.18c-0.1-2.09,0.03-4.21,0.73-6.18
				c0.13,2.06,0.45,4.04,0.82,5.99c0.38,1.95,0.92,3.84,1.58,5.67c0.69,1.83,1.51,3.63,2.46,5.38c0.48,0.87,0.97,1.74,1.51,2.59
				c0.26,0.43,0.54,0.84,0.83,1.26c0.14,0.21,0.29,0.41,0.45,0.61C139.74,1067.59,139.88,1067.83,140.12,1067.9z"/>
		</g>
	</g>
</g>
<g>
	
		<linearGradient id="SVGID_5_" gradientUnits="userSpaceOnUse" x1="127.1602" y1="1701.8986" x2="218.8747" y2="1701.8986" gradientTransform="matrix(0.8969 0.4422 -0.4422 0.8969 761.0943 -607.3929)">
		<stop  offset="0" style="stop-color:#6CBD45"/>
		<stop  offset="0.3942" style="stop-color:#6ABC45"/>
		<stop  offset="0.5616" style="stop-color:#63B945"/>
		<stop  offset="0.6861" style="stop-color:#56B545"/>
		<stop  offset="0.7893" style="stop-color:#45AE45"/>
		<stop  offset="0.8794" style="stop-color:#2EA545"/>
		<stop  offset="0.959" style="stop-color:#129A45"/>
		<stop  offset="1" style="stop-color:#009345"/>
		<stop  offset="1" style="stop-color:#37B34A"/>
	</linearGradient>
	<path class="st5" d="M181.64,980.97c-17.43-21.82-48.84-25.72-49.34-25.32c-0.54,0.43-3.64,31.89,13.79,53.71
		c17.43,21.82,46.08,27.92,49.34,25.32C198.42,1032.3,199.07,1002.79,181.64,980.97z"/>
	<g>
		<g>
			<path class="st3" d="M192.72,1032.64c0.2-0.35,0.09-0.78,0.05-1.16c-0.07-0.39-0.16-0.78-0.27-1.16
				c-0.2-0.77-0.44-1.53-0.71-2.28c-0.53-1.5-1.14-2.98-1.8-4.42c-1.28-2.92-2.74-5.75-4.33-8.5c-3.19-5.5-6.83-10.73-10.99-15.51
				c-4.14-4.79-8.88-9.05-13.96-12.87c-2.54-1.91-5.18-3.69-7.92-5.33c-2.72-1.66-5.5-3.26-8.46-4.47
				c6.13,1.92,11.78,5.17,17.12,8.76c5.33,3.63,10.21,7.94,14.48,12.82c4.21,4.91,7.88,10.27,10.85,15.99
				c1.47,2.87,2.83,5.79,3.96,8.81c0.55,1.51,1.05,3.05,1.47,4.6c0.21,0.78,0.4,1.56,0.54,2.36c0.07,0.4,0.12,0.8,0.15,1.2
				C192.89,1031.86,192.96,1032.3,192.72,1032.64z"/>
		</g>
		<g>
			<path class="st3" d="M181.23,1007.77c-0.11-0.2-0.35-0.28-0.54-0.38c-0.2-0.1-0.4-0.2-0.61-0.28c-0.42-0.17-0.84-0.32-1.27-0.46
				c-0.85-0.29-1.72-0.52-2.59-0.74c-1.74-0.42-3.5-0.7-5.28-0.83c-1.77-0.12-3.55-0.06-5.32,0.15c-0.89,0.11-1.78,0.24-2.66,0.42
				c-0.89,0.16-1.77,0.37-2.64,0.65c1.57-0.95,3.35-1.54,5.16-1.93c1.81-0.4,3.68-0.52,5.55-0.41c1.85,0.16,3.69,0.5,5.44,1.11
				c0.88,0.29,1.73,0.65,2.56,1.07c0.41,0.22,0.81,0.45,1.2,0.7C180.59,1007.1,181.03,1007.34,181.23,1007.77z"/>
		</g>
		<g>
			<path class="st3" d="M169.51,992.9c-0.27-0.14-0.41-0.43-0.56-0.66c-0.15-0.25-0.27-0.52-0.4-0.78
				c-0.23-0.53-0.42-1.09-0.56-1.65c-0.3-1.13-0.41-2.3-0.39-3.47c0.05-1.18,0.26-2.35,0.66-3.44c0.39-1.09,0.9-2.16,1.68-3.03
				c-0.37,1.08-0.62,2.17-0.84,3.26c-0.21,1.08-0.35,2.17-0.38,3.25c-0.04,1.09,0.01,2.19,0.13,3.28c0.06,0.55,0.13,1.1,0.23,1.65
				c0.04,0.28,0.1,0.55,0.16,0.82C169.31,992.38,169.34,992.69,169.51,992.9z"/>
		</g>
	</g>
</g>
<path d="M360.83,1032.05h17.85l38.88,87.7l39.17-87.7h18l-57.39,127.8L360.83,1032.05z"/>
<path d="M525.01,1075.49h16.91v80.18h-16.91v-15.94c-8.23,12.12-18.43,18.17-30.62,18.17c-10.56,0-19.58-4.15-27.07-12.44
	c-7.48-8.29-11.23-18.37-11.23-30.23c0-11.21,3.77-21.01,11.32-29.4c7.55-8.39,16.41-12.59,26.58-12.59
	c6.28,0,12.25,1.72,17.88,5.15c5.64,3.43,10.01,7.91,13.12,13.41V1075.49z M527.34,1115.82c0-7.32-2.63-13.59-7.89-18.81
	c-5.26-5.21-11.55-7.82-18.89-7.82c-7.14,0-13.37,2.59-18.7,7.78c-5.32,5.18-7.98,11.27-7.98,18.27c0,7.58,2.59,14.03,7.79,19.34
	c5.19,5.31,11.49,7.97,18.89,7.97c7.33,0,13.63-2.64,18.89-7.92C524.71,1129.35,527.34,1123.08,527.34,1115.82z"/>
<path d="M557.05,1155.67v-80.18h16.52v13.32c4.86-5.38,9.26-9.31,13.22-11.81c3.95-2.49,8.36-3.74,13.22-3.74
	c7.26,0,13.46,2.4,18.61,7.19c5.15,4.8,7.73,10.56,7.73,17.3v57.92h-16.91v-52.97c0-4.34-1.41-7.94-4.23-10.79
	c-2.82-2.85-6.4-4.28-10.74-4.28c-5.64,0-10.5,2.38-14.58,7.14c-4.08,4.76-6.12,10.51-6.12,17.25v43.64H557.05z"/>
<path d="M641.43,1031.85h24.88c14.06,0,25.4,3.3,34.02,9.91c8.62,6.61,12.93,15.2,12.93,25.75c0,10.63-4.55,19.54-13.66,26.73
	c-9.1,7.19-22.92,10.69-41.45,10.5v50.93h-16.72V1031.85z M658.15,1046.62v43.35c12.7-0.13,22.11-1.93,28.23-5.39
	c6.12-3.47,9.18-9.02,9.18-16.67c0-5.77-2.32-10.75-6.95-14.97C683.98,1048.73,673.83,1046.62,658.15,1046.62z"/>
<path d="M780.17,1075.49h16.91v80.18h-16.91v-15.94c-8.23,12.12-18.44,18.17-30.62,18.17c-10.56,0-19.58-4.15-27.07-12.44
	c-7.48-8.29-11.22-18.37-11.22-30.23c0-11.21,3.77-21.01,11.32-29.4c7.55-8.39,16.41-12.59,26.58-12.59
	c6.28,0,12.25,1.72,17.88,5.15c5.64,3.43,10.01,7.91,13.12,13.41V1075.49z M782.51,1115.82c0-7.32-2.63-13.59-7.89-18.81
	c-5.26-5.21-11.55-7.82-18.89-7.82c-7.14,0-13.37,2.59-18.7,7.78c-5.32,5.18-7.98,11.27-7.98,18.27c0,7.58,2.6,14.03,7.79,19.34
	c5.19,5.31,11.49,7.97,18.89,7.97c7.33,0,13.63-2.64,18.89-7.92C779.88,1129.35,782.51,1123.08,782.51,1115.82z"/>
<path d="M828.97,1075.49v16.52c3.76-6.61,7.43-11.39,11.03-14.34c3.6-2.95,8.28-4.42,14.04-4.42c1.62,0,3.95,0.39,7,1.17
	l-5.15,16.91c-3.24-0.65-5.38-0.97-6.42-0.97c-5.7,0-10.48,1.99-14.33,5.98c-3.86,3.98-5.78,8.96-5.78,14.92v44.42h-16.91v-80.18
	H828.97z"/>
<path d="M869.45,1029.52h16.91v81.15l33.13-35.18h21.88l-34.59,37.03l34.98,43.15h-20.93l-34.47-42.38v42.38h-16.91V1029.52z"/>
<path d="M997.64,1085.01l-11.28,9.91c-2.92-2.07-5.44-3.64-7.58-4.71s-4.67-1.6-7.58-1.6c-6.87,0-10.3,2.53-10.3,7.58
	c0,3.63,4.36,7.15,13.07,10.57c8.71,3.42,14.98,7.17,18.81,11.24c3.82,4.08,5.73,9,5.73,14.76c0,6.73-2.75,12.61-8.26,17.62
	c-5.51,5.02-11.99,7.52-19.44,7.52c-11.34,0-20.64-5.25-27.89-15.75l13.31-6.41c4.67,4.54,9.53,6.8,14.58,6.8
	c3.5,0,6.56-0.96,9.18-2.87c2.62-1.91,3.94-4.13,3.94-6.66c0-4.47-4.6-8.49-13.8-12.06c-9.2-3.57-15.57-7.19-19.1-10.85
	c-3.53-3.66-5.3-8.17-5.3-13.55c0-6.67,2.51-12.22,7.53-16.66c5.02-4.44,11.32-6.65,18.9-6.65
	C979.76,1073.25,988.25,1077.17,997.64,1085.01z"/>
<path d="M986.97,1032.05h17.85l38.88,87.7l39.17-87.7h18l-57.39,127.8L986.97,1032.05z"/>
<rect x="1108.44" y="1075.49" width="16.72" height="80.18"/>
<path d="M1189.29,1085.01l-11.27,9.91c-2.92-2.07-5.44-3.64-7.58-4.71c-2.14-1.07-4.66-1.6-7.58-1.6c-6.87,0-10.3,2.53-10.3,7.58
	c0,3.63,4.36,7.15,13.07,10.57c8.71,3.42,14.98,7.17,18.81,11.24c3.82,4.08,5.73,9,5.73,14.76c0,6.73-2.75,12.61-8.26,17.62
	c-5.51,5.02-11.99,7.52-19.44,7.52c-11.34,0-20.64-5.25-27.89-15.75l13.31-6.41c4.66,4.54,9.52,6.8,14.58,6.8
	c3.5,0,6.56-0.96,9.18-2.87c2.63-1.91,3.94-4.13,3.94-6.66c0-4.47-4.6-8.49-13.8-12.06c-9.2-3.57-15.57-7.19-19.1-10.85
	c-3.53-3.66-5.3-8.17-5.3-13.55c0-6.67,2.51-12.22,7.53-16.66c5.02-4.44,11.32-6.65,18.9-6.65
	C1171.41,1073.25,1179.9,1077.17,1189.29,1085.01z"/>
<rect x="1200.59" y="1075.49" width="16.72" height="80.18"/>
<path d="M1228.53,1115.24c0-10.95,4.32-20.68,12.97-29.21c8.65-8.52,18.58-12.78,29.79-12.78c11.53,0,21.61,4.2,30.23,12.59
	c8.62,8.39,12.93,18.19,12.93,29.4c0,11.27-4.23,21.2-12.68,29.79c-8.46,8.59-18.22,12.88-29.3,12.88
	c-11.86,0-22.14-4.24-30.86-12.73C1232.89,1136.69,1228.53,1126.71,1228.53,1115.24z M1298.12,1115.29c0-6.82-2.59-12.74-7.78-17.77
	c-5.18-5.03-11.34-7.55-18.47-7.55c-7.32,0-13.62,2.55-18.9,7.64c-5.28,5.1-7.92,11.18-7.92,18.26c0,6.75,2.67,12.66,8.02,17.72
	c5.35,5.06,11.61,7.59,18.8,7.59c7,0,13.12-2.59,18.37-7.79C1295.49,1128.21,1298.12,1122.17,1298.12,1115.29z"/>
<path d="M1323.5,1155.67v-80.18h16.52v13.32c4.86-5.38,9.26-9.31,13.22-11.81c3.95-2.49,8.36-3.74,13.22-3.74
	c7.26,0,13.46,2.4,18.61,7.19c5.15,4.8,7.73,10.56,7.73,17.3v57.92h-16.91v-52.97c0-4.34-1.41-7.94-4.23-10.79
	c-2.82-2.85-6.4-4.28-10.74-4.28c-5.64,0-10.5,2.38-14.58,7.14c-4.08,4.76-6.12,10.51-6.12,17.25v43.64H1323.5z"/>
<g>
	
		<linearGradient id="SVGID_6_" gradientUnits="userSpaceOnUse" x1="967.9642" y1="811.5313" x2="967.9642" y2="852.9966" gradientTransform="matrix(0.8951 0.4459 -0.4459 0.8951 716.8484 -133.1397)">
		<stop  offset="0" style="stop-color:#6CBD45"/>
		<stop  offset="0.3942" style="stop-color:#6ABC45"/>
		<stop  offset="0.5616" style="stop-color:#63B945"/>
		<stop  offset="0.6861" style="stop-color:#56B545"/>
		<stop  offset="0.7893" style="stop-color:#45AE45"/>
		<stop  offset="0.8794" style="stop-color:#2EA545"/>
		<stop  offset="0.959" style="stop-color:#129A45"/>
		<stop  offset="1" style="stop-color:#009345"/>
		<stop  offset="1" style="stop-color:#37B34A"/>
	</linearGradient>
	<path class="st6" d="M1203.76,1039.28c5.11-10.25,17.36-14.52,17.59-14.4c0.25,0.13,4.21,12.47-0.9,22.72
		c-5.11,10.25-16.06,15.16-17.59,14.4C1201.46,1061.3,1198.65,1049.53,1203.76,1039.28z"/>
	<g>
		<path class="st3" d="M1203.77,1060.94c-0.21-0.26-0.19-0.63-0.22-0.95c-0.02-0.33-0.01-0.66,0-0.99c0.03-0.66,0.09-1.32,0.18-1.97
			c0.19-1.31,0.48-2.6,0.81-3.88c0.69-2.55,1.72-5.02,2.96-7.36c1.32-2.3,2.88-4.48,4.72-6.38c1.83-1.9,3.83-3.68,6.14-4.96
			c-1.07,0.75-2.05,1.64-2.98,2.54c-0.95,0.9-1.85,1.84-2.7,2.83c-1.71,1.96-3.24,4.08-4.47,6.35c-1.27,2.26-2.27,4.68-3.08,7.15
			c-0.4,1.24-0.75,2.5-1.02,3.77c-0.14,0.64-0.26,1.28-0.35,1.92c-0.04,0.32-0.08,0.65-0.1,0.97
			C1203.67,1060.31,1203.6,1060.67,1203.77,1060.94z"/>
	</g>
</g>
<g>
	
		<linearGradient id="SVGID_7_" gradientUnits="userSpaceOnUse" x1="885.277" y1="852.727" x2="885.277" y2="894.1923" gradientTransform="matrix(0.8951 0.4459 -0.4459 0.8951 716.8484 -133.1397)">
		<stop  offset="0" style="stop-color:#6CBD45"/>
		<stop  offset="0.3942" style="stop-color:#6ABC45"/>
		<stop  offset="0.5616" style="stop-color:#63B945"/>
		<stop  offset="0.6861" style="stop-color:#56B545"/>
		<stop  offset="0.7893" style="stop-color:#45AE45"/>
		<stop  offset="0.8794" style="stop-color:#2EA545"/>
		<stop  offset="0.959" style="stop-color:#129A45"/>
		<stop  offset="1" style="stop-color:#009345"/>
		<stop  offset="1" style="stop-color:#37B34A"/>
	</linearGradient>
	<path class="st7" d="M1111.38,1039.28c5.11-10.25,17.36-14.52,17.59-14.4c0.25,0.13,4.21,12.47-0.9,22.72
		c-5.11,10.25-16.06,15.16-17.59,14.4C1109.08,1061.3,1106.27,1049.53,1111.38,1039.28z"/>
	<g>
		<path class="st3" d="M1111.39,1060.94c-0.21-0.26-0.19-0.63-0.22-0.95c-0.02-0.33-0.01-0.66,0-0.99c0.03-0.66,0.09-1.32,0.18-1.97
			c0.19-1.31,0.48-2.6,0.81-3.88c0.69-2.55,1.72-5.02,2.96-7.36c1.32-2.3,2.88-4.48,4.72-6.38c1.83-1.9,3.83-3.68,6.14-4.96
			c-1.07,0.75-2.05,1.64-2.98,2.54c-0.95,0.9-1.85,1.84-2.7,2.83c-1.71,1.96-3.24,4.08-4.47,6.35c-1.27,2.26-2.27,4.68-3.08,7.15
			c-0.4,1.24-0.75,2.5-1.02,3.77c-0.14,0.64-0.26,1.28-0.35,1.92c-0.04,0.32-0.08,0.65-0.1,0.97
			C1111.29,1060.31,1111.22,1060.67,1111.39,1060.94z"/>
	</g>
</g>
<g>
	<g>
		<linearGradient id="SVGID_8_" gradientUnits="userSpaceOnUse" x1="267.3763" y1="1916.7559" x2="849.6208" y2="1916.7559">
			<stop  offset="0" style="stop-color:#5989B2"/>
			<stop  offset="1" style="stop-color:#1C6FB1"/>
		</linearGradient>
		<path class="st8" d="M284.38,1950.89c4.07-4.8,8.52-9.27,13.05-13.66c4.57-4.35,9.28-8.57,14.15-12.61
			c9.72-8.12,20.03-15.6,30.84-22.45c2.7-1.72,5.45-3.36,8.23-4.96c2.76-1.65,5.6-3.15,8.42-4.72c5.7-3.02,11.52-5.85,17.5-8.43
			c11.93-5.21,24.45-9.45,37.5-12.29l4.91-1.03l4.97-0.83c3.3-0.62,6.68-0.92,10.04-1.34c1.68-0.24,3.39-0.28,5.08-0.4
			c1.7-0.1,3.4-0.23,5.1-0.29l5.1-0.06c1.7-0.03,3.41-0.05,5.11,0.06l5.11,0.22c1.71,0.05,3.39,0.27,5.1,0.41
			c1.69,0.17,3.4,0.27,5.09,0.51l5.06,0.72c1.69,0.22,3.36,0.53,5.03,0.85l5.01,0.95l4.94,1.17l2.47,0.59l2.43,0.67l4.86,1.35
			c1.61,0.47,3.19,1,4.78,1.51c3.21,0.98,6.29,2.15,9.42,3.25c6.18,2.3,12.25,4.8,18.13,7.41c11.82,5.22,23.05,10.88,34.08,16.28
			l8.23,4.03c2.72,1.28,5.46,2.63,8.17,3.86c2.71,1.27,5.42,2.53,8.14,3.71c2.71,1.24,5.43,2.34,8.14,3.49
			c10.84,4.55,21.77,8.27,32.87,11.15c11.1,2.85,22.39,4.82,33.87,5.69c2.87,0.14,5.75,0.41,8.64,0.5c2.89,0.04,5.78,0.17,8.68,0.14
			c5.79-0.02,11.6-0.24,17.4-0.78c2.9-0.28,5.8-0.54,8.7-0.94l4.36-0.55l4.34-0.71c5.8-0.91,11.53-2.25,17.3-3.58
			c2.86-0.73,5.73-1.49,8.59-2.31c2.84-0.88,5.7-1.69,8.53-2.65c5.71-1.78,11.29-3.97,16.89-6.18c11.16-4.53,22.11-9.86,32.81-15.87
			c5.34-3.02,10.63-6.18,15.81-9.57c5.2-3.37,10.32-6.9,15.3-10.73c-3.58,5.19-7.71,9.98-11.98,14.66
			c-4.31,4.64-8.84,9.1-13.6,13.33c-4.73,4.27-9.71,8.26-14.81,12.15c-5.12,3.85-10.47,7.42-15.91,10.89
			c-10.98,6.75-22.57,12.72-34.74,17.53c-6.08,2.4-12.28,4.56-18.61,6.36l-4.75,1.37l-4.8,1.19c-3.19,0.86-6.44,1.44-9.69,2.08
			c-6.5,1.25-13.08,2.14-19.7,2.8c-1.65,0.22-3.31,0.27-4.97,0.38l-4.98,0.3c-3.33,0.16-6.66,0.15-10,0.2
			c-13.36-0.04-26.8-1.51-39.91-4.25c-13.11-2.72-25.91-6.66-38.11-11.43c-3.04-1.2-6.09-2.41-9.06-3.7
			c-3.01-1.25-5.95-2.56-8.89-3.88c-2.95-1.32-5.8-2.7-8.7-4.05c-2.84-1.38-5.73-2.74-8.53-4.13
			c-22.57-11.12-43.66-22.48-65.37-29.42c-21.65-7.06-44.03-9.56-66.97-6.81c-2.87,0.27-5.72,0.79-8.61,1.17
			c-1.44,0.18-2.87,0.49-4.31,0.74c-1.44,0.27-2.88,0.51-4.31,0.8l-4.3,0.95l-2.16,0.48l-2.14,0.55c-1.43,0.37-2.86,0.73-4.3,1.08
			c-1.44,0.36-2.86,0.79-4.29,1.18c-11.45,3.22-22.81,7.28-34.03,11.93C327.63,1926.24,305.71,1937.71,284.38,1950.89z"/>
	</g>
	<g>
		<linearGradient id="SVGID_9_" gradientUnits="userSpaceOnUse" x1="266.984" y1="1985.1643" x2="849.2285" y2="1985.1643">
			<stop  offset="0" style="stop-color:#5989B2"/>
			<stop  offset="1" style="stop-color:#1C6FB1"/>
		</linearGradient>
		<path class="st9" d="M283.98,2019.3c4.07-4.8,8.52-9.27,13.05-13.66c4.57-4.35,9.28-8.57,14.15-12.61
			c9.72-8.12,20.03-15.6,30.84-22.45c2.7-1.72,5.45-3.36,8.23-4.96c2.76-1.65,5.6-3.15,8.42-4.72c5.7-3.02,11.52-5.85,17.5-8.43
			c11.93-5.21,24.45-9.45,37.5-12.29l4.91-1.03l4.97-0.83c3.3-0.62,6.68-0.92,10.04-1.34c1.68-0.24,3.39-0.28,5.08-0.4
			c1.7-0.1,3.4-0.23,5.1-0.29l5.1-0.06c1.7-0.03,3.41-0.05,5.1,0.06l5.11,0.22c1.71,0.05,3.4,0.27,5.1,0.41
			c1.69,0.17,3.4,0.27,5.09,0.51l5.06,0.72c1.69,0.22,3.36,0.53,5.03,0.85l5.01,0.95l4.94,1.17l2.47,0.59l2.43,0.67l4.86,1.35
			c1.61,0.47,3.19,1,4.78,1.51c3.21,0.98,6.29,2.15,9.42,3.25c6.18,2.3,12.25,4.8,18.13,7.41c11.82,5.22,23.05,10.88,34.08,16.28
			l8.23,4.03c2.72,1.28,5.46,2.63,8.17,3.86c2.71,1.27,5.43,2.53,8.14,3.71c2.71,1.24,5.43,2.34,8.14,3.49
			c10.84,4.55,21.77,8.27,32.87,11.15c11.1,2.85,22.39,4.82,33.87,5.69c2.87,0.14,5.75,0.41,8.64,0.5c2.89,0.04,5.78,0.17,8.68,0.14
			c5.79-0.02,11.6-0.24,17.4-0.78c2.9-0.28,5.8-0.54,8.7-0.94l4.36-0.55l4.34-0.71c5.8-0.91,11.53-2.25,17.3-3.58
			c2.86-0.73,5.73-1.49,8.59-2.31c2.84-0.88,5.7-1.69,8.53-2.65c5.71-1.78,11.29-3.97,16.89-6.18c11.16-4.53,22.11-9.86,32.81-15.87
			c5.34-3.02,10.63-6.18,15.81-9.57c5.2-3.37,10.32-6.9,15.3-10.73c-3.58,5.19-7.71,9.98-11.98,14.66
			c-4.31,4.64-8.84,9.1-13.6,13.33c-4.73,4.27-9.71,8.26-14.81,12.15c-5.12,3.85-10.47,7.42-15.91,10.89
			c-10.98,6.75-22.57,12.72-34.74,17.53c-6.08,2.4-12.28,4.56-18.61,6.36l-4.75,1.37l-4.8,1.19c-3.19,0.86-6.44,1.44-9.69,2.08
			c-6.5,1.25-13.08,2.14-19.7,2.8c-1.65,0.22-3.31,0.27-4.97,0.38l-4.98,0.3c-3.33,0.16-6.66,0.15-10,0.2
			c-13.36-0.04-26.8-1.51-39.91-4.25c-13.11-2.72-25.91-6.66-38.11-11.43c-3.04-1.2-6.09-2.41-9.06-3.7
			c-3.01-1.25-5.95-2.56-8.89-3.88c-2.95-1.32-5.8-2.7-8.7-4.05c-2.84-1.38-5.73-2.74-8.53-4.13
			c-22.57-11.12-43.66-22.48-65.37-29.42c-21.65-7.06-44.03-9.56-66.97-6.81c-2.87,0.27-5.72,0.79-8.61,1.17
			c-1.44,0.18-2.87,0.49-4.31,0.74c-1.44,0.27-2.88,0.51-4.31,0.8l-4.3,0.95l-2.16,0.48l-2.14,0.55c-1.43,0.37-2.86,0.73-4.3,1.08
			c-1.44,0.36-2.86,0.79-4.29,1.18c-11.45,3.22-22.81,7.28-34.03,11.93C327.23,1994.65,305.32,2006.12,283.98,2019.3z"/>
	</g>
	<g>
		
			<linearGradient id="SVGID_10_" gradientUnits="userSpaceOnUse" x1="1494.7345" y1="1874.4678" x2="1494.7345" y2="2179.3271" gradientTransform="matrix(0.6302 0.7765 -0.7765 0.6302 1346.1313 -827.2418)">
			<stop  offset="0" style="stop-color:#6CBD45"/>
			<stop  offset="0.3942" style="stop-color:#6ABC45"/>
			<stop  offset="0.5616" style="stop-color:#63B945"/>
			<stop  offset="0.6861" style="stop-color:#56B545"/>
			<stop  offset="0.7893" style="stop-color:#45AE45"/>
			<stop  offset="0.8794" style="stop-color:#2EA545"/>
			<stop  offset="0.959" style="stop-color:#129A45"/>
			<stop  offset="1" style="stop-color:#009345"/>
			<stop  offset="1" style="stop-color:#37B34A"/>
		</linearGradient>
		<path class="st10" d="M671.06,1557.41c65.37-53.05,160.34-44.33,161.56-42.82c1.3,1.61-9.78,96.24-75.15,149.29
			s-153.63,52.59-161.56,42.82C588.64,1697.75,605.69,1610.46,671.06,1557.41z"/>
		<g>
			<g>
				<path class="st3" d="M605.22,1702.43c-0.33-0.53-0.21-1.2-0.14-1.78c0.09-0.6,0.25-1.19,0.42-1.77c0.35-1.16,0.77-2.3,1.23-3.43
					c0.93-2.24,2-4.42,3.12-6.57c2.25-4.3,4.76-8.44,7.39-12.52c5.3-8.12,11.15-15.88,17.41-23.29
					c6.24-7.44,12.97-14.45,19.99-21.16c7.06-6.68,14.51-12.93,22.27-18.79c7.82-5.8,16-11.1,24.48-15.86
					c8.5-4.72,17.24-8.99,26.23-12.65c8.97-3.71,18.15-6.87,27.47-9.51c4.67-1.29,9.36-2.49,14.1-3.47
					c2.37-0.49,4.74-0.95,7.13-1.34c1.19-0.19,2.39-0.37,3.59-0.52c0.6-0.08,1.2-0.15,1.8-0.2c0.6-0.04,1.21-0.15,1.81-0.06
					c-0.6-0.04-1.19,0.12-1.79,0.21c-0.59,0.11-1.18,0.23-1.77,0.35c-1.18,0.25-2.35,0.53-3.52,0.81c-2.34,0.56-4.67,1.18-6.99,1.83
					c-4.63,1.3-9.23,2.72-13.78,4.27c-9.11,3.06-18.06,6.59-26.82,10.5c-8.73,3.96-17.32,8.24-25.59,13.08
					c-8.29,4.78-16.32,10.02-23.96,15.77c-7.69,5.71-15.04,11.86-22.09,18.35c-7.08,6.46-13.79,13.33-20.23,20.44
					c-6.4,7.15-12.51,14.57-18.15,22.35c-2.84,3.88-5.52,7.86-8.04,11.96c-1.25,2.05-2.45,4.13-3.53,6.28
					c-0.54,1.07-1.06,2.16-1.49,3.27c-0.21,0.56-0.42,1.13-0.56,1.71C605.11,1701.25,604.94,1701.88,605.22,1702.43z"/>
			</g>
			<g>
				<path class="st3" d="M655.03,1636.58c0.1-0.35,0.45-0.55,0.72-0.76c0.29-0.2,0.6-0.38,0.91-0.54c0.62-0.33,1.27-0.61,1.92-0.87
					c1.3-0.53,2.63-0.94,3.98-1.34c2.7-0.73,5.45-1.27,8.23-1.6c5.56-0.7,11.22-0.63,16.8,0.16c5.6,0.82,11.05,2.47,16.12,4.84
					c2.55,1.16,5,2.52,7.34,4.02c1.16,0.78,2.31,1.56,3.41,2.42c1.08,0.87,2.2,1.72,3.1,2.79c-0.57-0.38-1.2-0.66-1.82-0.97
					c-0.62-0.3-1.23-0.6-1.86-0.88c-1.25-0.56-2.49-1.12-3.75-1.63c-2.5-1.06-5.04-1.99-7.58-2.86c-5.1-1.7-10.29-3.01-15.54-3.78
					c-5.28-0.76-10.63-1.06-16.01-1.02c-2.69,0.06-5.39,0.16-8.08,0.42c-1.35,0.1-2.7,0.28-4.04,0.48c-0.67,0.1-1.34,0.22-2,0.37
					c-0.33,0.07-0.66,0.15-0.98,0.26C655.58,1636.22,655.22,1636.29,655.03,1636.58z"/>
			</g>
			<g>
				<path class="st3" d="M699.1,1600.33c0.36-0.21,0.51-0.65,0.71-1.01c0.19-0.37,0.37-0.76,0.54-1.15
					c0.33-0.78,0.66-1.55,0.94-2.35c0.59-1.57,1.13-3.15,1.63-4.73c1-3.16,1.82-6.34,2.42-9.55c0.56-3.19,0.91-6.43,1.02-9.75
					c0.07-1.66,0.09-3.33,0.07-5.01c-0.01-1.69-0.04-3.39-0.19-5.13c1,1.48,1.57,3.16,2.13,4.82c0.53,1.68,0.89,3.41,1.13,5.16
					c0.49,3.5,0.41,7.11-0.23,10.64c-0.66,3.5-1.83,6.89-3.46,10.02c-0.82,1.56-1.75,3.07-2.82,4.48c-0.55,0.69-1.11,1.38-1.73,2.01
					c-0.31,0.31-0.64,0.62-0.98,0.91c-0.18,0.14-0.36,0.27-0.55,0.4C699.55,1600.21,699.34,1600.36,699.1,1600.33z"/>
			</g>
		</g>
	</g>
	<g>
		
			<linearGradient id="SVGID_11_" gradientUnits="userSpaceOnUse" x1="340.4612" y1="1832.5839" x2="670.3702" y2="1832.5839" gradientTransform="matrix(0.9976 0.0686 -0.0686 0.9976 64.7763 -139.5171)">
			<stop  offset="0" style="stop-color:#6CBD45"/>
			<stop  offset="0.3942" style="stop-color:#6ABC45"/>
			<stop  offset="0.5616" style="stop-color:#63B945"/>
			<stop  offset="0.6861" style="stop-color:#56B545"/>
			<stop  offset="0.7893" style="stop-color:#45AE45"/>
			<stop  offset="0.8794" style="stop-color:#2EA545"/>
			<stop  offset="0.959" style="stop-color:#129A45"/>
			<stop  offset="1" style="stop-color:#009345"/>
			<stop  offset="1" style="stop-color:#37B34A"/>
		</linearGradient>
		<path class="st11" d="M482.89,1650.32c-87.81-48.82-197.64-18.9-198.76-16.88c-1.2,2.16,31.43,111.09,119.24,159.92
			s191.47,30,198.76,16.88C608.82,1798.21,570.71,1699.14,482.89,1650.32z"/>
		<g>
			<g>
				<path class="st3" d="M590.3,1807.14c0.21-0.71-0.13-1.41-0.39-2.05c-0.29-0.65-0.65-1.27-1.03-1.88
					c-0.76-1.21-1.6-2.37-2.47-3.51c-1.73-2.28-3.59-4.46-5.5-6.59c-3.84-4.25-7.85-8.35-12.01-12.29
					c-4.14-3.96-8.39-7.8-12.75-11.5c-4.36-3.71-8.77-7.35-13.29-10.85c-9.07-6.97-18.36-13.63-28.02-19.72
					c-9.62-6.14-19.52-11.84-29.72-16.93c-10.14-5.17-20.63-9.66-31.34-13.57c-10.68-4-21.64-7.25-32.7-10.15
					c-11.08-2.82-22.3-5.18-33.62-6.96c-5.66-0.93-11.35-1.68-17.06-2.3c-2.85-0.31-5.72-0.58-8.58-0.78
					c-1.43-0.11-2.87-0.21-4.3-0.27c-0.72-0.03-1.44-0.06-2.16-0.07c-0.71,0.01-1.45-0.06-2.14,0.1c0.68-0.24,1.42-0.24,2.13-0.33
					c0.72-0.06,1.44-0.11,2.16-0.16c1.44-0.08,2.89-0.14,4.33-0.18c2.89-0.06,5.78-0.04,8.67,0.03c5.78,0.13,11.55,0.53,17.32,1.04
					c5.76,0.55,11.51,1.28,17.23,2.15c5.73,0.87,11.42,1.97,17.09,3.18c11.35,2.4,22.53,5.6,33.53,9.36
					c10.98,3.83,21.72,8.36,32.14,13.57c10.35,5.3,20.42,11.12,30.11,17.54c9.65,6.46,19.02,13.34,27.87,20.84
					c8.89,7.45,17.33,15.43,25.2,23.92c3.9,4.28,7.7,8.67,11.19,13.29c1.74,2.32,3.43,4.67,4.97,7.13c0.76,1.24,1.49,2.5,2.12,3.8
					c0.31,0.65,0.61,1.32,0.84,2.01C590.32,1805.69,590.59,1806.45,590.3,1807.14z"/>
			</g>
			<g>
				<path class="st3" d="M518.13,1740.06c-0.28-0.3-0.72-0.33-1.1-0.42c-0.4-0.06-0.8-0.1-1.21-0.13c-0.81-0.06-1.62-0.08-2.43-0.07
					c-1.62,0.01-3.24,0.06-4.85,0.19c-3.23,0.2-6.44,0.61-9.62,1.07c-6.37,0.97-12.62,2.46-18.7,4.44
					c-6.04,2.01-11.9,4.63-17.52,7.77c-2.8,1.58-5.58,3.24-8.28,5.04c-1.37,0.88-2.7,1.81-4.02,2.76c-0.67,0.47-1.32,0.96-1.97,1.45
					c-0.65,0.5-1.32,0.98-1.9,1.55c0.87-1.41,2.02-2.62,3.14-3.84c1.13-1.21,2.33-2.35,3.55-3.48c2.47-2.21,5.08-4.28,7.84-6.14
					c5.5-3.75,11.52-6.81,17.91-8.92c6.36-2.08,12.98-3.32,19.62-3.73c3.32-0.21,6.65-0.19,9.97,0.07c1.66,0.16,3.31,0.35,4.94,0.67
					c0.82,0.16,1.63,0.34,2.43,0.58c0.4,0.12,0.8,0.26,1.18,0.42C517.48,1739.52,517.93,1739.67,518.13,1740.06z"/>
			</g>
			<g>
				<path class="st3" d="M458.82,1706.58c-0.27,0.08-0.54-0.07-0.78-0.17c-0.24-0.11-0.48-0.24-0.71-0.37
					c-0.45-0.28-0.88-0.58-1.3-0.9c-0.84-0.63-1.62-1.34-2.39-2.05c-1.49-1.47-2.88-3.04-4.14-4.72c-2.5-3.36-4.54-7.09-6.03-11.04
					c-1.46-3.99-2.33-8.17-2.53-12.36c-0.12-2.09-0.05-4.19,0.15-6.27c0.26-2.07,0.53-4.15,1.32-6.1c0.1,2.06,0.36,4.08,0.65,6.07
					c0.26,2,0.62,3.97,1.01,5.91c0.76,3.9,1.82,7.68,3.15,11.34c1.38,3.67,3.03,7.25,4.92,10.75c0.95,1.74,1.92,3.49,3.01,5.18
					c0.52,0.86,1.09,1.69,1.66,2.52c0.29,0.42,0.59,0.82,0.91,1.21C458.05,1705.95,458.34,1706.42,458.82,1706.58z"/>
			</g>
		</g>
	</g>
	<g>
		
			<linearGradient id="SVGID_12_" gradientUnits="userSpaceOnUse" x1="638.7655" y1="2058.5281" x2="822.1946" y2="2058.5281" gradientTransform="matrix(0.8969 0.4422 -0.4422 0.8969 761.0943 -607.3929)">
			<stop  offset="0" style="stop-color:#6CBD45"/>
			<stop  offset="0.3942" style="stop-color:#6ABC45"/>
			<stop  offset="0.5616" style="stop-color:#63B945"/>
			<stop  offset="0.6861" style="stop-color:#56B545"/>
			<stop  offset="0.7893" style="stop-color:#45AE45"/>
			<stop  offset="0.8794" style="stop-color:#2EA545"/>
			<stop  offset="0.959" style="stop-color:#129A45"/>
			<stop  offset="1" style="stop-color:#009345"/>
			<stop  offset="1" style="stop-color:#37B34A"/>
		</linearGradient>
		<path class="st12" d="M541.86,1532.72c-34.87-43.65-97.67-51.44-98.68-50.63c-1.07,0.86-7.28,63.78,27.58,107.42
			s92.15,55.84,98.68,50.63C575.42,1635.37,576.72,1576.37,541.86,1532.72z"/>
		<g>
			<g>
				<path class="st3" d="M564.01,1636.06c0.26-0.32,0.23-0.75,0.23-1.14c-0.01-0.4-0.07-0.79-0.13-1.18
					c-0.13-0.78-0.32-1.56-0.53-2.33c-0.4-1.54-0.89-3.06-1.42-4.56c-1.06-3-2.29-5.95-3.6-8.85c-2.59-5.82-5.53-11.47-8.68-16.99
					c-3.19-5.5-6.57-10.89-10.25-16.06c-3.65-5.19-7.54-10.21-11.71-14.98c-4.12-4.8-8.58-9.32-13.26-13.6
					c-4.65-4.31-9.6-8.3-14.68-12.12c-5.1-3.79-10.38-7.37-15.82-10.68c-2.71-1.68-5.47-3.29-8.28-4.8
					c-1.41-0.76-2.82-1.49-4.26-2.19c-1.43-0.69-2.85-1.47-4.37-1.94c3.12,0.75,6.08,2.07,9.02,3.34c2.94,1.3,5.84,2.7,8.7,4.17
					c5.69,3,11.22,6.32,16.53,9.98c5.33,3.63,10.41,7.64,15.27,11.89c4.84,4.28,9.41,8.89,13.67,13.76
					c8.43,9.8,15.74,20.55,21.72,31.98c3,5.71,5.66,11.59,7.91,17.63c1.1,3.03,2.1,6.09,2.94,9.2c0.41,1.56,0.79,3.12,1.07,4.71
					c0.13,0.8,0.24,1.6,0.29,2.4c0.02,0.4,0.04,0.81,0.01,1.21C564.32,1635.31,564.3,1635.76,564.01,1636.06z"/>
			</g>
			<g>
				<path class="st3" d="M541.04,1586.31c-0.22-0.39-0.69-0.55-1.07-0.77c-0.4-0.2-0.82-0.38-1.23-0.55
					c-0.84-0.34-1.68-0.65-2.54-0.93c-1.7-0.58-3.44-1.05-5.17-1.48c-3.48-0.83-7.01-1.42-10.56-1.66
					c-1.77-0.11-3.54-0.18-5.32-0.09c-1.78,0.02-3.55,0.21-5.33,0.4c-1.78,0.21-3.56,0.48-5.32,0.84c-1.77,0.35-3.55,0.73-5.28,1.3
					c1.53-1.03,3.27-1.7,4.99-2.35c1.74-0.62,3.52-1.13,5.33-1.5c3.62-0.79,7.37-1.03,11.09-0.81c3.71,0.29,7.38,1.02,10.88,2.22
					c1.75,0.59,3.46,1.31,5.11,2.14c0.82,0.43,1.63,0.88,2.4,1.39c0.39,0.26,0.77,0.52,1.13,0.81
					C540.48,1585.58,540.92,1585.86,541.04,1586.31z"/>
			</g>
			<g>
				<path class="st3" d="M517.6,1556.57c-0.54-0.27-0.81-0.85-1.13-1.33c-0.3-0.5-0.55-1.03-0.79-1.56
					c-0.46-1.07-0.84-2.17-1.12-3.3c-0.59-2.26-0.83-4.6-0.78-6.95c0.11-2.36,0.52-4.69,1.31-6.89c0.78-2.19,1.81-4.32,3.36-6.06
					c-0.73,2.17-1.25,4.35-1.68,6.51c-0.19,1.09-0.41,2.16-0.51,3.25c-0.15,1.08-0.22,2.17-0.26,3.25
					c-0.09,2.18,0.04,4.37,0.26,6.57c0.13,1.1,0.26,2.2,0.46,3.3c0.08,0.55,0.2,1.1,0.32,1.65c0.06,0.27,0.13,0.55,0.21,0.81
					C517.34,1556.09,517.38,1556.4,517.6,1556.57z"/>
			</g>
		</g>
	</g>
</g>
<g>
	<path d="M42.37,2093.54h17.85l38.88,87.7l39.17-87.7h18l-57.39,127.8L42.37,2093.54z"/>
	<path d="M206.55,2136.99h16.91v80.18h-16.91v-15.94c-8.23,12.12-18.43,18.17-30.62,18.17c-10.56,0-19.58-4.15-27.07-12.44
		c-7.48-8.29-11.23-18.37-11.23-30.23c0-11.21,3.77-21.01,11.32-29.4c7.55-8.39,16.41-12.59,26.58-12.59
		c6.28,0,12.25,1.72,17.88,5.15c5.64,3.43,10.01,7.91,13.12,13.41V2136.99z M208.88,2177.32c0-7.32-2.63-13.59-7.89-18.81
		c-5.26-5.21-11.55-7.82-18.89-7.82c-7.14,0-13.37,2.59-18.7,7.78c-5.32,5.18-7.98,11.27-7.98,18.27c0,7.58,2.59,14.03,7.79,19.34
		c5.19,5.31,11.49,7.97,18.89,7.97c7.33,0,13.63-2.64,18.89-7.92C206.25,2190.85,208.88,2184.58,208.88,2177.32z"/>
	<path d="M238.59,2217.17v-80.18h16.52v13.32c4.86-5.38,9.26-9.31,13.22-11.81c3.95-2.49,8.36-3.74,13.22-3.74
		c7.26,0,13.46,2.4,18.61,7.19c5.15,4.8,7.73,10.56,7.73,17.3v57.92h-16.91v-52.97c0-4.34-1.41-7.94-4.23-10.79
		c-2.82-2.85-6.4-4.28-10.74-4.28c-5.64,0-10.5,2.38-14.58,7.14c-4.08,4.76-6.12,10.51-6.12,17.25v43.64H238.59z"/>
	<path d="M322.97,2093.35h24.88c14.06,0,25.4,3.3,34.02,9.91c8.62,6.61,12.93,15.2,12.93,25.75c0,10.63-4.55,19.54-13.66,26.73
		c-9.1,7.19-22.92,10.69-41.45,10.5v50.93h-16.72V2093.35z M339.69,2108.12v43.35c12.7-0.13,22.11-1.93,28.23-5.39
		c6.12-3.47,9.18-9.02,9.18-16.67c0-5.77-2.32-10.75-6.95-14.97C365.52,2110.23,355.36,2108.12,339.69,2108.12z"/>
	<path d="M461.71,2136.99h16.91v80.18h-16.91v-15.94c-8.23,12.12-18.44,18.17-30.62,18.17c-10.56,0-19.58-4.15-27.07-12.44
		c-7.48-8.29-11.22-18.37-11.22-30.23c0-11.21,3.77-21.01,11.32-29.4c7.55-8.39,16.41-12.59,26.58-12.59
		c6.28,0,12.25,1.72,17.88,5.15c5.64,3.43,10.01,7.91,13.12,13.41V2136.99z M464.04,2177.32c0-7.32-2.63-13.59-7.89-18.81
		c-5.26-5.21-11.55-7.82-18.89-7.82c-7.14,0-13.37,2.59-18.7,7.78c-5.32,5.18-7.98,11.27-7.98,18.27c0,7.58,2.6,14.03,7.79,19.34
		c5.19,5.31,11.49,7.97,18.89,7.97c7.33,0,13.63-2.64,18.89-7.92C461.41,2190.85,464.04,2184.58,464.04,2177.32z"/>
	<path d="M510.5,2136.99v16.52c3.76-6.61,7.43-11.39,11.03-14.34c3.6-2.95,8.28-4.42,14.04-4.42c1.62,0,3.95,0.39,7,1.17
		l-5.15,16.91c-3.24-0.65-5.38-0.97-6.42-0.97c-5.7,0-10.48,1.99-14.33,5.98c-3.86,3.98-5.78,8.96-5.78,14.92v44.42h-16.91v-80.18
		H510.5z"/>
	<path d="M550.99,2091.02h16.91v81.15l33.13-35.18h21.88l-34.59,37.03l34.98,43.15h-20.93l-34.47-42.38v42.38h-16.91V2091.02z"/>
	<path d="M679.18,2146.51l-11.28,9.91c-2.92-2.07-5.44-3.64-7.58-4.71s-4.67-1.6-7.58-1.6c-6.87,0-10.3,2.53-10.3,7.58
		c0,3.63,4.36,7.15,13.07,10.57c8.71,3.42,14.98,7.17,18.81,11.24c3.82,4.08,5.73,9,5.73,14.76c0,6.73-2.75,12.61-8.26,17.62
		c-5.51,5.02-11.99,7.52-19.44,7.52c-11.34,0-20.64-5.25-27.89-15.75l13.31-6.41c4.67,4.54,9.53,6.8,14.58,6.8
		c3.5,0,6.56-0.96,9.18-2.87c2.62-1.91,3.94-4.13,3.94-6.66c0-4.47-4.6-8.49-13.8-12.06c-9.2-3.57-15.57-7.19-19.1-10.85
		c-3.53-3.66-5.3-8.17-5.3-13.55c0-6.67,2.51-12.22,7.53-16.66c5.02-4.44,11.32-6.65,18.9-6.65
		C661.3,2134.75,669.78,2138.67,679.18,2146.51z"/>
	<path d="M668.51,2093.54h17.85l38.88,87.7l39.17-87.7h18l-57.39,127.8L668.51,2093.54z"/>
	<rect x="789.98" y="2136.99" width="16.72" height="80.18"/>
	<path d="M870.83,2146.51l-11.27,9.91c-2.92-2.07-5.44-3.64-7.58-4.71c-2.14-1.07-4.66-1.6-7.58-1.6c-6.87,0-10.3,2.53-10.3,7.58
		c0,3.63,4.36,7.15,13.07,10.57c8.71,3.42,14.98,7.17,18.81,11.24c3.82,4.08,5.73,9,5.73,14.76c0,6.73-2.75,12.61-8.26,17.62
		c-5.51,5.02-11.99,7.52-19.44,7.52c-11.34,0-20.64-5.25-27.89-15.75l13.31-6.41c4.66,4.54,9.52,6.8,14.58,6.8
		c3.5,0,6.56-0.96,9.18-2.87c2.63-1.91,3.94-4.13,3.94-6.66c0-4.47-4.6-8.49-13.8-12.06c-9.2-3.57-15.57-7.19-19.1-10.85
		c-3.53-3.66-5.3-8.17-5.3-13.55c0-6.67,2.51-12.22,7.53-16.66c5.02-4.44,11.32-6.65,18.9-6.65
		C852.95,2134.75,861.43,2138.67,870.83,2146.51z"/>
	<rect x="882.12" y="2136.99" width="16.72" height="80.18"/>
	<path d="M910.06,2176.74c0-10.95,4.32-20.68,12.97-29.21c8.65-8.52,18.58-12.78,29.79-12.78c11.53,0,21.61,4.2,30.23,12.59
		c8.62,8.39,12.93,18.19,12.93,29.4c0,11.27-4.23,21.2-12.68,29.79c-8.46,8.59-18.22,12.88-29.3,12.88
		c-11.86,0-22.14-4.24-30.86-12.73C914.42,2198.19,910.06,2188.21,910.06,2176.74z M979.65,2176.79c0-6.82-2.59-12.74-7.78-17.77
		c-5.18-5.03-11.34-7.55-18.47-7.55c-7.32,0-13.62,2.55-18.9,7.64c-5.28,5.1-7.92,11.18-7.92,18.26c0,6.75,2.67,12.66,8.02,17.72
		c5.35,5.06,11.61,7.59,18.8,7.59c7,0,13.12-2.59,18.37-7.79C977.03,2189.71,979.65,2183.67,979.65,2176.79z"/>
	<path d="M1005.04,2217.17v-80.18h16.52v13.32c4.86-5.38,9.26-9.31,13.22-11.81c3.95-2.49,8.36-3.74,13.22-3.74
		c7.26,0,13.46,2.4,18.61,7.19c5.15,4.8,7.73,10.56,7.73,17.3v57.92h-16.91v-52.97c0-4.34-1.41-7.94-4.23-10.79
		c-2.82-2.85-6.4-4.28-10.74-4.28c-5.64,0-10.5,2.38-14.58,7.14c-4.08,4.76-6.12,10.51-6.12,17.25v43.64H1005.04z"/>
	<g>
		
			<linearGradient id="SVGID_13_" gradientUnits="userSpaceOnUse" x1="1156.2739" y1="1903.6559" x2="1156.2739" y2="1945.1213" gradientTransform="matrix(0.8951 0.4459 -0.4459 0.8951 716.8484 -133.1397)">
			<stop  offset="0" style="stop-color:#6CBD45"/>
			<stop  offset="0.3942" style="stop-color:#6ABC45"/>
			<stop  offset="0.5616" style="stop-color:#63B945"/>
			<stop  offset="0.6861" style="stop-color:#56B545"/>
			<stop  offset="0.7893" style="stop-color:#45AE45"/>
			<stop  offset="0.8794" style="stop-color:#2EA545"/>
			<stop  offset="0.959" style="stop-color:#129A45"/>
			<stop  offset="1" style="stop-color:#009345"/>
			<stop  offset="1" style="stop-color:#37B34A"/>
		</linearGradient>
		<path class="st13" d="M885.3,2100.78c5.11-10.25,17.36-14.52,17.59-14.4c0.25,0.13,4.21,12.47-0.9,22.72
			c-5.11,10.25-16.06,15.16-17.59,14.4C882.99,2122.79,880.19,2111.03,885.3,2100.78z"/>
		<g>
			<path class="st3" d="M885.31,2122.44c-0.21-0.26-0.19-0.63-0.22-0.95c-0.02-0.33-0.01-0.66,0-0.99c0.03-0.66,0.09-1.32,0.18-1.97
				c0.19-1.31,0.48-2.6,0.81-3.88c0.69-2.55,1.72-5.02,2.96-7.36c1.32-2.3,2.88-4.48,4.72-6.38c1.83-1.9,3.83-3.68,6.14-4.96
				c-1.07,0.75-2.05,1.64-2.98,2.54c-0.95,0.9-1.85,1.84-2.7,2.83c-1.71,1.96-3.24,4.08-4.47,6.35c-1.27,2.26-2.27,4.68-3.08,7.15
				c-0.4,1.24-0.75,2.5-1.02,3.77c-0.14,0.64-0.26,1.28-0.35,1.92c-0.04,0.32-0.08,0.65-0.1,0.97
				C885.2,2121.81,885.14,2122.16,885.31,2122.44z"/>
		</g>
	</g>
	<g>
		
			<linearGradient id="SVGID_14_" gradientUnits="userSpaceOnUse" x1="1073.5867" y1="1944.8516" x2="1073.5867" y2="1986.317" gradientTransform="matrix(0.8951 0.4459 -0.4459 0.8951 716.8484 -133.1397)">
			<stop  offset="0" style="stop-color:#6CBD45"/>
			<stop  offset="0.3942" style="stop-color:#6ABC45"/>
			<stop  offset="0.5616" style="stop-color:#63B945"/>
			<stop  offset="0.6861" style="stop-color:#56B545"/>
			<stop  offset="0.7893" style="stop-color:#45AE45"/>
			<stop  offset="0.8794" style="stop-color:#2EA545"/>
			<stop  offset="0.959" style="stop-color:#129A45"/>
			<stop  offset="1" style="stop-color:#009345"/>
			<stop  offset="1" style="stop-color:#37B34A"/>
		</linearGradient>
		<path class="st14" d="M792.92,2100.78c5.11-10.25,17.36-14.52,17.59-14.4c0.25,0.13,4.21,12.47-0.9,22.72
			c-5.11,10.25-16.06,15.16-17.59,14.4C790.61,2122.79,787.81,2111.03,792.92,2100.78z"/>
		<g>
			<path class="st3" d="M792.93,2122.44c-0.21-0.26-0.19-0.63-0.22-0.95c-0.02-0.33-0.01-0.66,0-0.99c0.03-0.66,0.09-1.32,0.18-1.97
				c0.19-1.31,0.48-2.6,0.81-3.88c0.69-2.55,1.72-5.02,2.96-7.36c1.32-2.3,2.88-4.48,4.72-6.38c1.83-1.9,3.83-3.68,6.14-4.96
				c-1.07,0.75-2.05,1.64-2.98,2.54c-0.95,0.9-1.85,1.84-2.7,2.83c-1.71,1.96-3.24,4.08-4.47,6.35c-1.27,2.26-2.27,4.68-3.08,7.15
				c-0.41,1.24-0.75,2.5-1.02,3.77c-0.14,0.64-0.26,1.28-0.35,1.92c-0.04,0.32-0.08,0.65-0.1,0.97
				C792.82,2121.81,792.76,2122.16,792.93,2122.44z"/>
		</g>
	</g>
</g>
<g>
	<g>
		<linearGradient id="SVGID_15_" gradientUnits="userSpaceOnUse" x1="84.0251" y1="541.0911" x2="666.2696" y2="541.0911">
			<stop  offset="0" style="stop-color:#5989B2"/>
			<stop  offset="1" style="stop-color:#1C6FB1"/>
		</linearGradient>
		<path class="st15" d="M101.03,575.22c4.07-4.8,8.52-9.27,13.05-13.66c4.57-4.35,9.28-8.57,14.15-12.61
			c9.72-8.12,20.03-15.6,30.84-22.45c2.7-1.72,5.45-3.36,8.23-4.96c2.76-1.65,5.6-3.15,8.42-4.72c5.7-3.02,11.52-5.85,17.5-8.43
			c11.93-5.21,24.45-9.45,37.5-12.29l4.91-1.03l4.97-0.83c3.3-0.62,6.68-0.92,10.04-1.34c1.68-0.24,3.39-0.28,5.08-0.4
			c1.7-0.1,3.4-0.23,5.1-0.29l5.1-0.06c1.7-0.03,3.41-0.05,5.11,0.06l5.11,0.22c1.71,0.05,3.39,0.27,5.1,0.41
			c1.69,0.17,3.4,0.27,5.09,0.51l5.06,0.72c1.69,0.22,3.36,0.53,5.03,0.85l5.01,0.95l4.94,1.17l2.47,0.59l2.43,0.67l4.86,1.35
			c1.61,0.47,3.19,1,4.78,1.51c3.21,0.99,6.29,2.15,9.42,3.25c6.18,2.3,12.25,4.8,18.13,7.41c11.82,5.22,23.05,10.88,34.08,16.28
			l8.23,4.03c2.72,1.28,5.46,2.63,8.17,3.86c2.71,1.27,5.42,2.53,8.14,3.71c2.71,1.24,5.43,2.34,8.14,3.49
			c10.84,4.55,21.77,8.27,32.87,11.15c11.1,2.85,22.39,4.82,33.87,5.69c2.87,0.14,5.75,0.41,8.64,0.5c2.89,0.04,5.78,0.17,8.68,0.14
			c5.79-0.02,11.6-0.24,17.4-0.78c2.9-0.28,5.8-0.54,8.7-0.94l4.36-0.55l4.34-0.71c5.8-0.91,11.53-2.25,17.3-3.58
			c2.86-0.73,5.73-1.49,8.59-2.31c2.84-0.88,5.7-1.69,8.53-2.65c5.71-1.78,11.29-3.97,16.89-6.18c11.16-4.53,22.11-9.86,32.81-15.87
			c5.34-3.02,10.63-6.18,15.81-9.57c5.2-3.37,10.32-6.9,15.3-10.73c-3.58,5.19-7.71,9.98-11.98,14.66
			c-4.31,4.64-8.84,9.1-13.6,13.33c-4.73,4.27-9.71,8.26-14.81,12.15c-5.12,3.85-10.47,7.42-15.91,10.89
			c-10.98,6.75-22.57,12.72-34.74,17.53c-6.08,2.4-12.28,4.56-18.61,6.36l-4.75,1.37l-4.8,1.19c-3.19,0.86-6.44,1.44-9.69,2.08
			c-6.5,1.25-13.08,2.14-19.7,2.8c-1.65,0.22-3.31,0.27-4.97,0.38l-4.98,0.3c-3.33,0.16-6.66,0.15-10,0.2
			c-13.36-0.04-26.8-1.51-39.91-4.25c-13.11-2.72-25.91-6.66-38.11-11.43c-3.04-1.2-6.09-2.41-9.06-3.7
			c-3.01-1.25-5.95-2.56-8.89-3.88c-2.95-1.32-5.8-2.7-8.7-4.05c-2.84-1.38-5.73-2.74-8.53-4.13
			c-22.57-11.12-43.66-22.48-65.37-29.42c-21.65-7.06-44.03-9.56-66.97-6.81c-2.87,0.27-5.72,0.79-8.61,1.17
			c-1.44,0.18-2.87,0.49-4.31,0.74c-1.44,0.27-2.88,0.51-4.31,0.8l-4.3,0.95l-2.16,0.48l-2.14,0.55c-1.43,0.37-2.86,0.73-4.3,1.08
			c-1.44,0.36-2.86,0.79-4.29,1.18c-11.45,3.22-22.81,7.28-34.03,11.93C144.28,550.58,122.36,562.05,101.03,575.22z"/>
	</g>
	<g>
		<linearGradient id="SVGID_16_" gradientUnits="userSpaceOnUse" x1="83.6328" y1="609.4994" x2="665.8773" y2="609.4994">
			<stop  offset="0" style="stop-color:#5989B2"/>
			<stop  offset="1" style="stop-color:#1C6FB1"/>
		</linearGradient>
		<path class="st16" d="M100.63,643.63c4.07-4.8,8.52-9.27,13.05-13.66c4.57-4.35,9.28-8.57,14.15-12.61
			c9.72-8.12,20.03-15.6,30.84-22.45c2.7-1.72,5.45-3.36,8.23-4.96c2.76-1.65,5.6-3.15,8.42-4.72c5.7-3.02,11.52-5.85,17.5-8.43
			c11.93-5.21,24.45-9.45,37.5-12.29l4.91-1.03l4.97-0.83c3.3-0.62,6.68-0.92,10.04-1.34c1.68-0.24,3.39-0.28,5.08-0.4
			c1.7-0.1,3.4-0.23,5.1-0.29l5.1-0.06c1.7-0.03,3.41-0.05,5.11,0.06l5.11,0.22c1.71,0.05,3.4,0.27,5.1,0.41
			c1.69,0.17,3.4,0.27,5.09,0.51l5.06,0.72c1.69,0.22,3.36,0.53,5.03,0.85l5.01,0.95l4.94,1.17l2.47,0.59l2.43,0.67l4.86,1.35
			c1.61,0.47,3.19,1,4.78,1.51c3.21,0.98,6.29,2.15,9.42,3.25c6.18,2.3,12.25,4.8,18.13,7.41c11.82,5.22,23.05,10.88,34.08,16.28
			l8.23,4.03c2.72,1.28,5.46,2.63,8.17,3.86c2.71,1.27,5.42,2.53,8.14,3.71c2.71,1.24,5.43,2.34,8.14,3.49
			c10.84,4.55,21.77,8.27,32.87,11.15c11.1,2.85,22.39,4.82,33.87,5.69c2.87,0.14,5.75,0.41,8.64,0.5c2.89,0.04,5.78,0.17,8.68,0.14
			c5.79-0.02,11.6-0.24,17.4-0.78c2.9-0.28,5.8-0.54,8.7-0.94l4.36-0.55l4.34-0.71c5.8-0.91,11.53-2.25,17.3-3.58
			c2.86-0.73,5.73-1.49,8.59-2.31c2.84-0.88,5.7-1.69,8.53-2.65c5.71-1.78,11.29-3.97,16.89-6.18c11.16-4.53,22.11-9.86,32.81-15.87
			c5.34-3.02,10.63-6.18,15.81-9.57c5.2-3.37,10.32-6.9,15.3-10.73c-3.58,5.19-7.71,9.98-11.98,14.66
			c-4.31,4.64-8.84,9.1-13.6,13.33c-4.73,4.27-9.71,8.26-14.81,12.15c-5.12,3.85-10.47,7.42-15.91,10.89
			c-10.98,6.75-22.57,12.72-34.74,17.53c-6.08,2.4-12.28,4.56-18.61,6.36l-4.75,1.37l-4.8,1.19c-3.19,0.86-6.44,1.44-9.69,2.08
			c-6.5,1.25-13.08,2.14-19.7,2.8c-1.65,0.22-3.31,0.27-4.97,0.38l-4.98,0.3c-3.33,0.16-6.66,0.15-10,0.2
			c-13.36-0.04-26.8-1.51-39.91-4.25c-13.11-2.72-25.91-6.66-38.11-11.43c-3.04-1.2-6.09-2.41-9.06-3.7
			c-3.01-1.25-5.95-2.56-8.89-3.88c-2.95-1.32-5.8-2.7-8.7-4.05c-2.84-1.38-5.73-2.74-8.53-4.13
			c-22.57-11.12-43.66-22.48-65.37-29.42c-21.65-7.06-44.03-9.56-66.97-6.81c-2.87,0.27-5.72,0.79-8.61,1.17
			c-1.44,0.18-2.87,0.49-4.31,0.74c-1.44,0.27-2.88,0.51-4.31,0.8l-4.3,0.95l-2.16,0.48l-2.14,0.55c-1.43,0.37-2.86,0.73-4.3,1.08
			c-1.44,0.36-2.86,0.79-4.29,1.18c-11.45,3.22-22.81,7.28-34.03,11.93C143.88,618.99,121.96,630.46,100.63,643.63z"/>
	</g>
	<g>
		
			<linearGradient id="SVGID_17_" gradientUnits="userSpaceOnUse" x1="311.0461" y1="1149.931" x2="311.0461" y2="1454.7905" gradientTransform="matrix(0.6302 0.7765 -0.7765 0.6302 1346.1313 -827.2418)">
			<stop  offset="0" style="stop-color:#6CBD45"/>
			<stop  offset="0.3942" style="stop-color:#6ABC45"/>
			<stop  offset="0.5616" style="stop-color:#63B945"/>
			<stop  offset="0.6861" style="stop-color:#56B545"/>
			<stop  offset="0.7893" style="stop-color:#45AE45"/>
			<stop  offset="0.8794" style="stop-color:#2EA545"/>
			<stop  offset="0.959" style="stop-color:#129A45"/>
			<stop  offset="1" style="stop-color:#009345"/>
			<stop  offset="1" style="stop-color:#37B34A"/>
		</linearGradient>
		<path class="st17" d="M487.71,181.74c65.37-53.05,160.34-44.33,161.56-42.82c1.3,1.61-9.78,96.24-75.15,149.29
			s-153.63,52.59-161.56,42.82C405.29,322.08,422.34,234.79,487.71,181.74z"/>
		<g>
			<g>
				<path class="st3" d="M421.87,326.76c-0.33-0.53-0.21-1.2-0.14-1.78c0.09-0.6,0.25-1.19,0.42-1.77c0.35-1.16,0.77-2.3,1.23-3.43
					c0.93-2.24,2-4.42,3.12-6.57c2.25-4.3,4.76-8.44,7.39-12.52c5.3-8.12,11.15-15.88,17.41-23.29
					c6.24-7.44,12.97-14.45,19.99-21.16c7.06-6.68,14.51-12.93,22.27-18.79c7.82-5.8,16-11.1,24.48-15.86
					c8.5-4.72,17.24-8.99,26.23-12.65c8.97-3.71,18.15-6.87,27.47-9.51c4.67-1.29,9.36-2.49,14.1-3.47
					c2.37-0.49,4.74-0.95,7.13-1.34c1.19-0.19,2.39-0.37,3.59-0.52c0.6-0.08,1.2-0.15,1.8-0.2c0.6-0.04,1.21-0.15,1.81-0.06
					c-0.6-0.04-1.19,0.12-1.79,0.21c-0.59,0.11-1.18,0.23-1.77,0.35c-1.18,0.25-2.35,0.53-3.52,0.81c-2.34,0.56-4.67,1.18-6.99,1.83
					c-4.63,1.3-9.23,2.72-13.78,4.27c-9.11,3.06-18.06,6.59-26.82,10.5c-8.73,3.96-17.32,8.24-25.59,13.08
					c-8.29,4.78-16.32,10.02-23.96,15.77c-7.69,5.71-15.04,11.86-22.09,18.35c-7.08,6.46-13.79,13.33-20.23,20.44
					c-6.4,7.15-12.51,14.57-18.15,22.35c-2.84,3.88-5.52,7.86-8.04,11.96c-1.25,2.05-2.45,4.13-3.53,6.28
					c-0.54,1.07-1.06,2.16-1.49,3.27c-0.21,0.56-0.42,1.13-0.56,1.71C421.76,325.58,421.59,326.21,421.87,326.76z"/>
			</g>
			<g>
				<path class="st3" d="M471.68,260.91c0.1-0.35,0.45-0.55,0.72-0.76c0.29-0.2,0.6-0.37,0.91-0.54c0.62-0.33,1.27-0.61,1.92-0.87
					c1.3-0.53,2.63-0.95,3.98-1.34c2.7-0.73,5.45-1.27,8.23-1.6c5.56-0.7,11.22-0.63,16.8,0.16c5.6,0.82,11.05,2.47,16.12,4.84
					c2.55,1.16,5,2.52,7.34,4.02c1.16,0.78,2.31,1.56,3.41,2.42c1.08,0.87,2.2,1.72,3.1,2.79c-0.57-0.38-1.2-0.66-1.82-0.97
					c-0.62-0.3-1.23-0.6-1.86-0.88c-1.25-0.56-2.49-1.12-3.75-1.63c-2.5-1.06-5.04-1.99-7.58-2.86c-5.1-1.7-10.29-3.01-15.54-3.78
					c-5.28-0.76-10.63-1.06-16.01-1.02c-2.69,0.06-5.39,0.16-8.08,0.42c-1.35,0.1-2.7,0.28-4.04,0.48c-0.67,0.1-1.34,0.22-2,0.37
					c-0.33,0.07-0.66,0.15-0.98,0.26C472.23,260.55,471.87,260.63,471.68,260.91z"/>
			</g>
			<g>
				<path class="st3" d="M515.75,224.66c0.36-0.21,0.51-0.65,0.71-1.01c0.19-0.37,0.37-0.76,0.54-1.15
					c0.33-0.78,0.66-1.55,0.94-2.35c0.59-1.57,1.13-3.15,1.63-4.73c1-3.16,1.82-6.34,2.42-9.55c0.56-3.19,0.91-6.43,1.02-9.75
					c0.07-1.66,0.09-3.33,0.07-5.01c-0.01-1.69-0.04-3.39-0.19-5.13c1,1.48,1.57,3.16,2.13,4.82c0.53,1.68,0.89,3.41,1.13,5.16
					c0.49,3.5,0.41,7.11-0.23,10.64c-0.66,3.5-1.83,6.89-3.46,10.02c-0.82,1.56-1.75,3.07-2.82,4.48c-0.55,0.69-1.11,1.38-1.73,2.01
					c-0.31,0.31-0.64,0.62-0.98,0.91c-0.18,0.14-0.36,0.27-0.55,0.4C516.2,224.54,515.99,224.7,515.75,224.66z"/>
			</g>
		</g>
	</g>
	<g>
		
			<linearGradient id="SVGID_18_" gradientUnits="userSpaceOnUse" x1="63.1561" y1="472.7407" x2="393.0651" y2="472.7407" gradientTransform="matrix(0.9976 0.0686 -0.0686 0.9976 64.7763 -139.5171)">
			<stop  offset="0" style="stop-color:#6CBD45"/>
			<stop  offset="0.3942" style="stop-color:#6ABC45"/>
			<stop  offset="0.5616" style="stop-color:#63B945"/>
			<stop  offset="0.6861" style="stop-color:#56B545"/>
			<stop  offset="0.7893" style="stop-color:#45AE45"/>
			<stop  offset="0.8794" style="stop-color:#2EA545"/>
			<stop  offset="0.959" style="stop-color:#129A45"/>
			<stop  offset="1" style="stop-color:#009345"/>
			<stop  offset="1" style="stop-color:#37B34A"/>
		</linearGradient>
		<path class="st18" d="M299.54,274.66c-87.81-48.82-197.64-18.9-198.76-16.88c-1.2,2.16,31.43,111.1,119.24,159.92
			s191.47,30,198.76,16.88C425.47,422.55,387.35,323.48,299.54,274.66z"/>
		<g>
			<g>
				<path class="st3" d="M406.95,431.48c0.21-0.71-0.13-1.41-0.39-2.05c-0.29-0.65-0.65-1.27-1.03-1.88
					c-0.76-1.21-1.6-2.37-2.47-3.51c-1.73-2.28-3.59-4.46-5.5-6.59c-3.84-4.25-7.85-8.35-12.01-12.29
					c-4.14-3.96-8.39-7.8-12.75-11.5c-4.36-3.71-8.77-7.35-13.29-10.85c-9.07-6.97-18.36-13.63-28.02-19.72
					c-9.62-6.14-19.52-11.84-29.72-16.93c-10.14-5.17-20.63-9.66-31.34-13.57c-10.68-4-21.64-7.25-32.7-10.15
					c-11.08-2.82-22.29-5.18-33.62-6.96c-5.66-0.93-11.35-1.68-17.06-2.3c-2.85-0.31-5.72-0.58-8.58-0.78
					c-1.43-0.11-2.87-0.21-4.3-0.27c-0.72-0.03-1.44-0.06-2.16-0.07c-0.71,0.01-1.45-0.06-2.14,0.1c0.68-0.24,1.42-0.24,2.13-0.33
					c0.72-0.06,1.44-0.11,2.16-0.16c1.44-0.08,2.89-0.14,4.33-0.18c2.89-0.06,5.78-0.04,8.67,0.03c5.78,0.13,11.55,0.53,17.32,1.04
					c5.76,0.55,11.51,1.28,17.23,2.15c5.73,0.87,11.42,1.97,17.09,3.18c11.35,2.4,22.53,5.6,33.53,9.36
					c10.98,3.83,21.72,8.36,32.14,13.57c10.35,5.3,20.42,11.12,30.11,17.54c9.65,6.46,19.02,13.34,27.87,20.84
					c8.89,7.45,17.33,15.43,25.2,23.92c3.9,4.28,7.7,8.67,11.19,13.29c1.74,2.32,3.43,4.67,4.97,7.13c0.76,1.24,1.49,2.5,2.12,3.8
					c0.31,0.65,0.61,1.32,0.84,2.01C406.97,430.03,407.24,430.79,406.95,431.48z"/>
			</g>
			<g>
				<path class="st3" d="M334.78,364.39c-0.28-0.3-0.72-0.33-1.1-0.42c-0.4-0.06-0.8-0.1-1.21-0.13c-0.81-0.06-1.62-0.08-2.43-0.07
					c-1.62,0.01-3.24,0.06-4.85,0.19c-3.23,0.2-6.44,0.61-9.62,1.07c-6.37,0.97-12.62,2.46-18.7,4.44
					c-6.04,2.01-11.9,4.63-17.52,7.77c-2.8,1.58-5.58,3.24-8.28,5.04c-1.37,0.88-2.7,1.81-4.02,2.76c-0.67,0.47-1.32,0.96-1.97,1.45
					c-0.65,0.5-1.32,0.98-1.9,1.55c0.87-1.41,2.02-2.62,3.14-3.84c1.13-1.21,2.33-2.35,3.55-3.48c2.47-2.21,5.08-4.28,7.84-6.14
					c5.5-3.75,11.52-6.81,17.91-8.92c6.36-2.08,12.98-3.32,19.62-3.73c3.32-0.21,6.65-0.19,9.97,0.07c1.66,0.16,3.31,0.35,4.94,0.67
					c0.82,0.16,1.63,0.34,2.43,0.58c0.4,0.12,0.8,0.26,1.18,0.42C334.13,363.85,334.58,364.01,334.78,364.39z"/>
			</g>
			<g>
				<path class="st3" d="M275.46,330.91c-0.27,0.08-0.54-0.07-0.78-0.17c-0.24-0.11-0.48-0.24-0.71-0.37
					c-0.45-0.28-0.88-0.58-1.3-0.9c-0.84-0.63-1.62-1.34-2.39-2.05c-1.49-1.47-2.88-3.04-4.14-4.72c-2.5-3.36-4.54-7.09-6.03-11.04
					c-1.46-3.99-2.33-8.17-2.53-12.36c-0.12-2.09-0.05-4.19,0.15-6.27c0.26-2.07,0.53-4.15,1.32-6.1c0.1,2.06,0.36,4.08,0.65,6.07
					c0.26,2,0.62,3.97,1.01,5.91c0.76,3.9,1.82,7.68,3.15,11.34c1.38,3.67,3.03,7.25,4.92,10.75c0.95,1.74,1.92,3.49,3.01,5.18
					c0.52,0.86,1.09,1.69,1.66,2.52c0.29,0.42,0.59,0.82,0.91,1.21C274.7,330.29,274.99,330.75,275.46,330.91z"/>
			</g>
		</g>
	</g>
	<g>
		
			<linearGradient id="SVGID_19_" gradientUnits="userSpaceOnUse" x1="-133.9768" y1="905.7311" x2="49.4523" y2="905.7311" gradientTransform="matrix(0.8969 0.4422 -0.4422 0.8969 761.0943 -607.3929)">
			<stop  offset="0" style="stop-color:#6CBD45"/>
			<stop  offset="0.3942" style="stop-color:#6ABC45"/>
			<stop  offset="0.5616" style="stop-color:#63B945"/>
			<stop  offset="0.6861" style="stop-color:#56B545"/>
			<stop  offset="0.7893" style="stop-color:#45AE45"/>
			<stop  offset="0.8794" style="stop-color:#2EA545"/>
			<stop  offset="0.959" style="stop-color:#129A45"/>
			<stop  offset="1" style="stop-color:#009345"/>
			<stop  offset="1" style="stop-color:#37B34A"/>
		</linearGradient>
		<path class="st19" d="M358.51,157.06c-34.87-43.65-97.67-51.44-98.68-50.63c-1.07,0.86-7.28,63.78,27.58,107.42
			s92.15,55.84,98.68,50.63C392.07,259.7,393.37,200.7,358.51,157.06z"/>
		<g>
			<g>
				<path class="st3" d="M380.66,260.39c0.26-0.32,0.23-0.75,0.23-1.14c-0.01-0.4-0.07-0.79-0.13-1.18
					c-0.13-0.78-0.32-1.56-0.53-2.33c-0.4-1.54-0.89-3.06-1.42-4.56c-1.06-3-2.29-5.95-3.6-8.85c-2.59-5.82-5.53-11.47-8.68-16.99
					c-3.19-5.5-6.57-10.89-10.25-16.06c-3.65-5.19-7.54-10.21-11.71-14.98c-4.12-4.8-8.58-9.32-13.26-13.6
					c-4.65-4.31-9.6-8.3-14.68-12.12c-5.1-3.79-10.38-7.37-15.82-10.68c-2.71-1.68-5.47-3.28-8.28-4.8
					c-1.41-0.76-2.82-1.49-4.26-2.19c-1.43-0.69-2.85-1.47-4.37-1.94c3.12,0.75,6.08,2.07,9.02,3.34c2.94,1.3,5.84,2.7,8.7,4.17
					c5.69,3,11.22,6.32,16.53,9.98c5.33,3.63,10.41,7.64,15.27,11.89c4.84,4.28,9.41,8.89,13.67,13.76
					c8.43,9.8,15.74,20.55,21.72,31.98c3,5.71,5.66,11.59,7.91,17.63c1.1,3.03,2.1,6.09,2.94,9.2c0.41,1.56,0.79,3.12,1.07,4.71
					c0.13,0.8,0.24,1.6,0.29,2.4c0.02,0.4,0.04,0.81,0.01,1.21C380.97,259.65,380.95,260.1,380.66,260.39z"/>
			</g>
			<g>
				<path class="st3" d="M357.69,210.65c-0.22-0.39-0.69-0.55-1.07-0.77c-0.4-0.2-0.82-0.38-1.23-0.55
					c-0.84-0.34-1.68-0.65-2.54-0.93c-1.7-0.58-3.44-1.05-5.17-1.48c-3.48-0.83-7.01-1.42-10.55-1.66
					c-1.77-0.11-3.54-0.18-5.32-0.09c-1.78,0.02-3.55,0.21-5.33,0.4c-1.78,0.21-3.56,0.48-5.32,0.84c-1.77,0.35-3.55,0.73-5.28,1.3
					c1.53-1.03,3.27-1.7,4.99-2.35c1.74-0.62,3.52-1.13,5.33-1.5c3.62-0.79,7.37-1.03,11.09-0.81c3.71,0.29,7.38,1.02,10.88,2.22
					c1.75,0.59,3.46,1.31,5.11,2.14c0.82,0.43,1.63,0.88,2.4,1.39c0.39,0.26,0.77,0.52,1.13,0.81
					C357.13,209.91,357.57,210.19,357.69,210.65z"/>
			</g>
			<g>
				<path class="st3" d="M334.25,180.91c-0.54-0.27-0.81-0.85-1.13-1.33c-0.3-0.5-0.55-1.03-0.79-1.56
					c-0.46-1.07-0.84-2.17-1.12-3.3c-0.59-2.26-0.83-4.6-0.78-6.95c0.11-2.36,0.52-4.69,1.31-6.89c0.78-2.19,1.81-4.32,3.36-6.06
					c-0.73,2.17-1.25,4.35-1.68,6.51c-0.19,1.09-0.41,2.16-0.51,3.25c-0.15,1.08-0.22,2.17-0.26,3.25
					c-0.09,2.18,0.04,4.37,0.26,6.57c0.13,1.1,0.26,2.2,0.46,3.3c0.08,0.55,0.2,1.1,0.32,1.65c0.06,0.27,0.13,0.55,0.21,0.81
					C333.99,180.43,334.03,180.73,334.25,180.91z"/>
			</g>
		</g>
	</g>
</g>
</svg>
